<?xml version="1.0" encoding="UTF-8"?>
<svg xmlns="http://www.w3.org/2000/svg" xmlns:xlink="http://www.w3.org/1999/xlink" width="50px" height="50px" viewBox="0 0 50 50" version="1.1">
<defs>
<filter id="alpha" filterUnits="objectBoundingBox" x="0%" y="0%" width="100%" height="100%">
  <feColorMatrix type="matrix" in="SourceGraphic" values="0 0 0 0 1 0 0 0 0 1 0 0 0 0 1 0 0 0 1 0"/>
</filter>
<mask id="mask0">
  <g filter="url(#alpha)">
<rect x="0" y="0" width="50" height="50" style="fill:rgb(0%,0%,0%);fill-opacity:0.2;stroke:none;"/>
  </g>
</mask>
<clipPath id="clip1">
  <rect x="0" y="0" width="50" height="50"/>
</clipPath>
<g id="surface5" clip-path="url(#clip1)">
<path style=" stroke:none;fill-rule:nonzero;fill:rgb(0%,0%,0%);fill-opacity:1;" d="M 46.875 25.78125 C 46.875 37.863281 37.082031 47.65625 25 47.65625 C 12.917969 47.65625 3.125 37.863281 3.125 25.78125 C 3.125 13.699219 12.917969 3.90625 25 3.90625 C 37.082031 3.90625 46.875 13.699219 46.875 25.78125 Z M 46.875 25.78125 "/>
</g>
<mask id="mask1">
  <g filter="url(#alpha)">
<rect x="0" y="0" width="50" height="50" style="fill:rgb(0%,0%,0%);fill-opacity:0.2;stroke:none;"/>
  </g>
</mask>
<clipPath id="clip2">
  <rect x="0" y="0" width="50" height="50"/>
</clipPath>
<g id="surface8" clip-path="url(#clip2)">
<path style=" stroke:none;fill-rule:nonzero;fill:rgb(0%,0%,0%);fill-opacity:1;" d="M 19.726562 19.53125 L 17.34375 33.59375 L 27.84375 33.59375 L 33.59375 19.53125 L 31.40625 19.53125 L 27.34375 29.46875 L 27.34375 23.402344 C 26.976562 23.527344 26.582031 23.59375 26.171875 23.59375 C 25.761719 23.59375 25.367188 23.527344 25 23.402344 L 25 31.25 L 19.929688 31.25 L 21.910156 19.53125 Z M 19.726562 19.53125 "/>
</g>
<mask id="mask2">
  <g filter="url(#alpha)">
<rect x="0" y="0" width="50" height="50" style="fill:rgb(0%,0%,0%);fill-opacity:0.2;stroke:none;"/>
  </g>
</mask>
<clipPath id="clip3">
  <rect x="0" y="0" width="50" height="50"/>
</clipPath>
<g id="surface11" clip-path="url(#clip3)">
<path style=" stroke:none;fill-rule:nonzero;fill:rgb(0%,0%,0%);fill-opacity:1;" d="M 25 11.71875 C 17.234375 11.71875 10.9375 18.015625 10.9375 25.78125 C 10.9375 33.546875 17.234375 39.84375 25 39.84375 C 32.765625 39.84375 39.0625 33.546875 39.0625 25.78125 C 39.0625 18.015625 32.765625 11.71875 25 11.71875 Z M 25 14.0625 C 31.472656 14.0625 36.71875 19.308594 36.71875 25.78125 C 36.71875 32.253906 31.472656 37.5 25 37.5 C 18.527344 37.5 13.28125 32.253906 13.28125 25.78125 C 13.28125 19.308594 18.527344 14.0625 25 14.0625 Z M 25 14.0625 "/>
</g>
<mask id="mask3">
  <g filter="url(#alpha)">
<rect x="0" y="0" width="50" height="50" style="fill:rgb(0%,0%,0%);fill-opacity:0.2;stroke:none;"/>
  </g>
</mask>
<clipPath id="clip4">
  <rect x="0" y="0" width="50" height="50"/>
</clipPath>
<g id="surface14" clip-path="url(#clip4)">
<path style=" stroke:none;fill-rule:nonzero;fill:rgb(0%,0%,0%);fill-opacity:1;" d="M 11.714844 17.191406 C 10.886719 17.207031 10.144531 17.285156 9.503906 17.441406 C 8.359375 17.71875 7.402344 18.265625 7.113281 19.328125 C 6.824219 20.390625 7.339844 21.46875 8.140625 22.445312 C 8.792969 23.242188 9.855469 24.046875 10.96875 24.863281 C 11.011719 24.234375 11.089844 23.617188 11.210938 23.015625 C 10.464844 22.425781 9.714844 21.863281 9.308594 21.367188 C 8.683594 20.601562 8.574219 20.105469 8.636719 19.878906 C 8.699219 19.652344 9.035156 19.3125 9.929688 19.097656 C 10.824219 18.878906 12.152344 18.824219 13.769531 18.957031 C 17 19.21875 21.378906 20.226562 26.054688 21.910156 C 30.726562 23.597656 34.820312 25.648438 37.605469 27.554688 C 38.996094 28.507812 40.0625 29.425781 40.691406 30.191406 C 41.316406 30.957031 41.425781 31.457031 41.363281 31.683594 C 41.300781 31.910156 40.964844 32.25 40.070312 32.464844 C 39.40625 32.625 38.351562 32.695312 37.261719 32.667969 C 36.941406 33.238281 36.578125 33.785156 36.179688 34.304688 C 37.835938 34.429688 39.386719 34.386719 40.496094 34.117188 C 41.636719 33.84375 42.597656 33.296875 42.886719 32.234375 C 43.175781 31.171875 42.65625 30.09375 41.855469 29.117188 C 41.054688 28.136719 39.886719 27.148438 38.410156 26.140625 C 35.457031 24.117188 31.273438 22.03125 26.492188 20.304688 C 21.707031 18.582031 17.234375 17.546875 13.808594 17.265625 C 13.378906 17.230469 12.96875 17.207031 12.574219 17.195312 C 12.277344 17.1875 11.992188 17.183594 11.714844 17.191406 Z M 11.714844 17.191406 "/>
</g>
<mask id="mask4">
  <g filter="url(#alpha)">
<rect x="0" y="0" width="50" height="50" style="fill:rgb(0%,0%,0%);fill-opacity:0.2;stroke:none;"/>
  </g>
</mask>
<clipPath id="clip5">
  <rect x="0" y="0" width="50" height="50"/>
</clipPath>
<g id="surface17" clip-path="url(#clip5)">
<path style=" stroke:none;fill-rule:nonzero;fill:rgb(0%,0%,0%);fill-opacity:1;" d="M 28.125 20.703125 C 28.125 21.78125 27.25 22.65625 26.171875 22.65625 C 25.09375 22.65625 24.21875 21.78125 24.21875 20.703125 C 24.21875 19.625 25.09375 18.75 26.171875 18.75 C 27.25 18.75 28.125 19.625 28.125 20.703125 Z M 28.125 20.703125 "/>
</g>
<mask id="mask5">
  <g filter="url(#alpha)">
<rect x="0" y="0" width="50" height="50" style="fill:rgb(0%,0%,0%);fill-opacity:0.101961;stroke:none;"/>
  </g>
</mask>
<clipPath id="clip6">
  <rect x="0" y="0" width="50" height="50"/>
</clipPath>
<g id="surface20" clip-path="url(#clip6)">
<path style=" stroke:none;fill-rule:nonzero;fill:rgb(100%,100%,100%);fill-opacity:1;" d="M 25 3.125 C 12.917969 3.125 3.125 12.917969 3.125 25 C 3.132812 25.128906 3.140625 25.261719 3.152344 25.390625 C 3.367188 13.472656 13.082031 3.917969 25 3.90625 C 36.851562 3.910156 46.542969 13.351562 46.859375 25.195312 C 46.867188 25.132812 46.871094 25.066406 46.875 25 C 46.875 12.917969 37.082031 3.125 25 3.125 Z M 25 3.125 "/>
</g>
</defs>
<g id="surface1">
<use xlink:href="#surface5" mask="url(#mask0)"/>
<path style=" stroke:none;fill-rule:nonzero;fill:rgb(30.980392%,30.980392%,30.980392%);fill-opacity:1;" d="M 46.875 25 C 46.875 37.082031 37.082031 46.875 25 46.875 C 12.917969 46.875 3.125 37.082031 3.125 25 C 3.125 12.917969 12.917969 3.125 25 3.125 C 37.082031 3.125 46.875 12.917969 46.875 25 Z M 46.875 25 "/>
<use xlink:href="#surface8" mask="url(#mask1)"/>
<use xlink:href="#surface11" mask="url(#mask2)"/>
<path style=" stroke:none;fill-rule:nonzero;fill:rgb(100%,100%,100%);fill-opacity:1;" d="M 19.726562 18.75 L 21.914062 18.75 L 19.53125 32.8125 L 17.34375 32.8125 Z M 19.726562 18.75 "/>
<path style=" stroke:none;fill-rule:nonzero;fill:rgb(100%,100%,100%);fill-opacity:1;" d="M 27.128906 30.46875 L 27.128906 32.8125 L 17.34375 32.8125 L 18 30.46875 Z M 27.128906 30.46875 "/>
<path style=" stroke:none;fill-rule:nonzero;fill:rgb(43.529412%,43.529412%,93.333333%);fill-opacity:1;" d="M 25 10.9375 C 17.234375 10.9375 10.9375 17.234375 10.9375 25 C 10.9375 32.765625 17.234375 39.0625 25 39.0625 C 32.765625 39.0625 39.0625 32.765625 39.0625 25 C 39.0625 17.234375 32.765625 10.9375 25 10.9375 Z M 25 13.28125 C 31.472656 13.28125 36.71875 18.527344 36.71875 25 C 36.71875 31.472656 31.472656 36.71875 25 36.71875 C 18.527344 36.71875 13.28125 31.472656 13.28125 25 C 13.28125 18.527344 18.527344 13.28125 25 13.28125 Z M 25 13.28125 "/>
<path style=" stroke:none;fill-rule:nonzero;fill:rgb(100%,100%,100%);fill-opacity:1;" d="M 25 22.621094 L 25 32.65625 L 27.34375 32.65625 L 27.34375 22.621094 C 26.976562 22.746094 26.582031 22.8125 26.171875 22.8125 C 25.761719 22.8125 25.367188 22.746094 25 22.621094 Z M 25 22.621094 "/>
<path style=" stroke:none;fill-rule:nonzero;fill:rgb(100%,100%,100%);fill-opacity:1;" d="M 31.40625 18.75 L 33.59375 18.75 L 27.84375 32.8125 L 25.65625 32.8125 Z M 31.40625 18.75 "/>
<use xlink:href="#surface14" mask="url(#mask3)"/>
<path style=" stroke:none;fill-rule:nonzero;fill:rgb(34.901961%,83.137255%,94.509804%);fill-opacity:1;" d="M 11.714844 16.410156 C 10.886719 16.425781 10.144531 16.503906 9.503906 16.660156 C 8.359375 16.9375 7.402344 17.484375 7.113281 18.546875 C 6.824219 19.609375 7.339844 20.6875 8.140625 21.664062 C 8.792969 22.460938 9.855469 23.265625 10.96875 24.082031 C 11.011719 23.453125 11.089844 22.835938 11.210938 22.234375 C 10.464844 21.644531 9.714844 21.082031 9.308594 20.585938 C 8.683594 19.820312 8.574219 19.324219 8.636719 19.097656 C 8.699219 18.871094 9.035156 18.53125 9.929688 18.316406 C 10.824219 18.097656 12.152344 18.042969 13.769531 18.175781 C 17 18.4375 21.378906 19.445312 26.054688 21.128906 C 30.726562 22.816406 34.820312 24.867188 37.605469 26.773438 C 38.996094 27.726562 40.0625 28.644531 40.691406 29.410156 C 41.316406 30.175781 41.425781 30.675781 41.363281 30.902344 C 41.300781 31.128906 40.964844 31.46875 40.070312 31.683594 C 39.40625 31.84375 38.351562 31.914062 37.261719 31.886719 C 36.941406 32.457031 36.578125 33.003906 36.179688 33.523438 C 37.835938 33.648438 39.386719 33.605469 40.496094 33.335938 C 41.636719 33.0625 42.597656 32.515625 42.886719 31.453125 C 43.175781 30.390625 42.65625 29.3125 41.855469 28.335938 C 41.054688 27.355469 39.886719 26.367188 38.410156 25.359375 C 35.457031 23.335938 31.273438 21.25 26.492188 19.523438 C 21.707031 17.800781 17.234375 16.765625 13.808594 16.484375 C 13.378906 16.449219 12.96875 16.425781 12.574219 16.414062 C 12.277344 16.40625 11.992188 16.402344 11.714844 16.410156 Z M 11.714844 16.410156 "/>
<use xlink:href="#surface17" mask="url(#mask4)"/>
<path style=" stroke:none;fill-rule:nonzero;fill:rgb(100%,100%,100%);fill-opacity:1;" d="M 28.125 19.921875 C 28.125 21 27.25 21.875 26.171875 21.875 C 25.09375 21.875 24.21875 21 24.21875 19.921875 C 24.21875 18.84375 25.09375 17.96875 26.171875 17.96875 C 27.25 17.96875 28.125 18.84375 28.125 19.921875 Z M 28.125 19.921875 "/>
<use xlink:href="#surface20" mask="url(#mask5)"/>
</g>
</svg>
